Cover : 
[IMG]http://cdn.piczend.com/images/oYSjNBpx/1358719254_mv5bmtm5mji4ndexnf5bml5banbnxkftztcwmdm1mjmzmq%40%40._v1._sy317_.jpg[/IMG]

Screens :
 
http://www.piczend.com/image/1358719169_vlcsnap-2013-01-20-14h58m11s224.png 
http://www.piczend.com/image/1358719165_vlcsnap-2013-01-20-14h58m16s23.png 
http://www.piczend.com/image/1358719166_vlcsnap-2013-01-20-14h58m28s144.png 
http://www.piczend.com/image/1358719170_vlcsnap-2013-01-20-14h58m32s182.png

Info :

Video
ID : 1
Format : AVC
Format/Info : Advanced Video Codec
Format profile : Main@L3.0
Format settings, CABAC : Yes
Format settings, ReFrames : 1 frame
Codec ID : avc1
Codec ID/Info : Advanced Video Coding
Duration : 2h 24mn
Bit rate mode : Variable
Bit rate : 772 Kbps
Width : 640 pixels
Height : 360 pixels
Display aspect ratio : 16:9
Frame rate mode : Variable
Frame rate : 23.976 fps
Minimum frame rate : 23.974 fps
Maximum frame rate : 90.000 fps
Color space : YUV
Chroma subsampling : 4:2:0
Bit depth : 8 bits
Scan type : Progressive
Bits/(Pixel*Frame) : 0.140
Stream size : 796 MiB (92%)
Writing library : x264 core
Encoded date : UTC 2013-01-20 17:55:11
Tagged date : UTC 2013-01-20 18:21:35
Color primaries : BT.601 NTSC
Transfer characteristics : BT.709
Matrix coefficients : BT.601

Audio
ID : 2
Format : MPEG Audio
Format version : Version 1
Format profile : Layer 3
Mode : Joint stereo
Mode extension : MS Stereo
Codec ID : 69
Duration : 2h 24mn
Bit rate mode : Constant
Bit rate : 64.0 Kbps
Channel(s) : 2 channels
Sampling rate : 48.0 KHz
Compression mode : Lossy
Stream size : 66.0 MiB (8%)
Writing library : LAME3.98.4
Encoded date : UTC 2013-01-20 17:55:11
Tagged date : UTC 2013-01-20 18:21:29
